<svg xmlns="http://www.w3.org/2000/svg" width="39" height="32" viewBox="0 0 39 32" fill="none">
<rect x="0.816406" y="0.5" width="37" height="31" rx="4.5" fill="black" stroke="black"/>
<path d="M25.8628 7.19506C25.8628 6.53505 25.3277 6 24.6677 6C24.0077 6 23.4727 6.53505 23.4727 7.19506V9.20494C23.4727 9.86495 24.0077 10.4 24.6677 10.4C25.3277 10.4 25.8628 9.86495 25.8628 9.20494V7.19506Z" fill="white"/>
<path d="M15.105 7.19506C15.105 6.53505 14.5699 6 13.9099 6C13.2499 6 12.7148 6.53505 12.7148 7.19506V9.20494C12.7148 9.86495 13.2499 10.4 13.9099 10.4C14.5699 10.4 15.105 9.86495 15.105 9.20494V7.19506Z" fill="white"/>
<path d="M28.5238 8.19922H26.3449V9.28564C26.3449 10.2103 25.5917 10.9636 24.667 10.9636C23.7424 10.9636 22.9891 10.2103 22.9891 9.28564V8.19922H15.5894V9.28564C15.5894 10.2103 14.8361 10.9636 13.9115 10.9636C12.9868 10.9636 12.2336 10.2103 12.2336 9.28564V8.19922H10.109C9.11915 8.19922 8.31641 9.00196 8.31641 9.99181V24.6042C8.31641 25.594 9.11915 26.3967 10.109 26.3967H28.5238C29.5137 26.3967 30.3164 25.594 30.3164 24.6042V9.99302C30.3164 9.00317 29.5137 8.20043 28.5238 8.20043V8.19922ZM27.2744 22.7029C27.2744 23.4526 26.666 24.0609 25.9164 24.0609H12.7164C11.9668 24.0609 11.3584 23.4526 11.3584 22.7029V13.3066H27.2744V22.7041V22.7029Z" fill="white"/>
</svg>