<svg xmlns="http://www.w3.org/2000/svg" width="36" height="36" viewBox="0 0 36 36" fill="none">
<path d="M18.0005 4.5C26.7005 4.5 33.752 9.996 33.752 16.7775C33.752 23.5575 26.7005 29.0535 18.002 29.0535C17.1359 29.052 16.2707 28.9969 15.4115 28.8885L8.79945 33.213C8.04795 33.6105 7.78245 33.567 8.09145 32.5935L9.42945 27.0765C5.10945 24.8865 2.25195 21.0915 2.25195 16.7775C2.25195 9.9975 9.30195 4.5 18.002 4.5M26.864 16.59L29.069 14.454C29.1962 14.3219 29.2672 14.1455 29.2669 13.9621C29.2667 13.7786 29.1953 13.6024 29.0678 13.4706C28.9402 13.3388 28.7665 13.2616 28.5831 13.2553C28.3998 13.2491 28.2212 13.3142 28.085 13.437L25.193 16.236V13.923C25.193 13.7352 25.1184 13.5551 24.9856 13.4224C24.8528 13.2896 24.6727 13.215 24.485 13.215C24.2972 13.215 24.1171 13.2896 23.9843 13.4224C23.8515 13.5551 23.777 13.7352 23.777 13.923V17.7585C23.752 17.8681 23.752 17.9819 23.777 18.0915V20.25C23.777 20.4378 23.8515 20.6179 23.9843 20.7506C24.1171 20.8834 24.2972 20.958 24.485 20.958C24.6727 20.958 24.8528 20.8834 24.9856 20.7506C25.1184 20.6179 25.193 20.4378 25.193 20.25V18.2055L25.8335 17.586L27.9755 20.6355C28.0289 20.7116 28.0969 20.7765 28.1754 20.8264C28.254 20.8762 28.3416 20.9101 28.4332 20.9262C28.5249 20.9422 28.6188 20.94 28.7096 20.9197C28.8004 20.8994 28.8863 20.8615 28.9625 20.808C29.0386 20.7545 29.1034 20.6866 29.1533 20.608C29.2032 20.5295 29.2371 20.4419 29.2531 20.3502C29.2691 20.2586 29.2669 20.1647 29.2467 20.0739C29.2264 19.9831 29.1884 19.8971 29.135 19.821L26.864 16.59ZM22.427 19.476H20.237V13.9455C20.2286 13.7636 20.1504 13.5918 20.0187 13.4661C19.887 13.3403 19.7118 13.2701 19.5297 13.2701C19.3476 13.2701 19.1724 13.3403 19.0407 13.4661C18.909 13.5918 18.8308 13.7636 18.8225 13.9455V20.184C18.8225 20.574 19.1375 20.892 19.529 20.892H22.427C22.6147 20.892 22.7948 20.8174 22.9276 20.6846C23.0604 20.5519 23.135 20.3718 23.135 20.184C23.135 19.9962 23.0604 19.8161 22.9276 19.6834C22.7948 19.5506 22.6147 19.476 22.427 19.476ZM13.6415 17.8395L14.6855 15.2775L15.6425 17.838L13.6415 17.8395ZM17.426 18.57L17.429 18.546C17.4284 18.3677 17.3604 18.1961 17.2385 18.066L15.6695 13.866C15.6037 13.6659 15.4784 13.4905 15.3103 13.3635C15.1423 13.2364 14.9395 13.1637 14.729 13.155C14.5171 13.1549 14.3102 13.2189 14.1354 13.3386C13.9605 13.4582 13.826 13.628 13.7495 13.8255L11.2565 19.938C11.1854 20.1118 11.1864 20.3068 11.2591 20.4799C11.3318 20.6531 11.4704 20.7902 11.6442 20.8613C11.8181 20.9323 12.013 20.9313 12.1861 20.8586C12.3593 20.7859 12.4964 20.6473 12.5675 20.4735L13.0655 19.254H16.1705L16.6175 20.454C16.6479 20.5437 16.6961 20.6264 16.7592 20.6971C16.8222 20.7678 16.8988 20.8252 16.9844 20.8658C17.0699 20.9064 17.1628 20.9294 17.2575 20.9335C17.3521 20.9375 17.4466 20.9225 17.5354 20.8894C17.6241 20.8563 17.7053 20.8057 17.7742 20.7406C17.843 20.6755 17.8981 20.5973 17.9362 20.5105C17.9742 20.4237 17.9945 20.3302 17.9957 20.2355C17.997 20.1408 17.9792 20.0467 17.9435 19.959L17.426 18.57ZM12.4415 13.953C12.4418 13.86 12.4239 13.7679 12.3885 13.6819C12.3532 13.596 12.3012 13.5178 12.2355 13.452C12.1698 13.3862 12.0918 13.334 12.0059 13.2985C11.92 13.263 11.8279 13.2448 11.735 13.245H6.86745C6.67968 13.245 6.4996 13.3196 6.36682 13.4524C6.23405 13.5851 6.15945 13.7652 6.15945 13.953C6.15945 14.1408 6.23405 14.3209 6.36682 14.4536C6.4996 14.5864 6.67968 14.661 6.86745 14.661H8.60745V20.265C8.60745 20.4528 8.68205 20.6329 8.81482 20.7656C8.9476 20.8984 9.12768 20.973 9.31545 20.973C9.50323 20.973 9.68331 20.8984 9.81609 20.7656C9.94886 20.6329 10.0235 20.4528 10.0235 20.265V14.661H11.7335C11.8265 14.6614 11.9188 14.6434 12.0049 14.6079C12.0909 14.5725 12.1691 14.5203 12.235 14.4545C12.3008 14.3887 12.3529 14.3105 12.3884 14.2244C12.4238 14.1383 12.4418 14.0461 12.4415 13.953Z" fill="black"/>
</svg>