<svg xmlns="http://www.w3.org/2000/svg" width="35" height="35" viewBox="0 0 35 35" fill="none">
  <mask id="mask0_707_222" style="mask-type:alpha" maskUnits="userSpaceOnUse" x="0" y="0" width="35" height="35">
    <rect width="35" height="35" fill="#D9D9D9"/>
  </mask>
  <g mask="url(#mask0_707_222)">
    <path d="M20.4173 32.0832V27.5988L28.4746 19.578C28.6934 19.3592 28.9364 19.2012 29.2038 19.104C29.4711 19.0068 29.7385 18.9582 30.0059 18.9582C30.2975 18.9582 30.577 19.0129 30.8444 19.1222C31.1118 19.2316 31.3548 19.3957 31.5736 19.6144L32.9225 20.9634C33.117 21.1821 33.2689 21.4252 33.3783 21.6925C33.4876 21.9599 33.5423 22.2273 33.5423 22.4946C33.5423 22.762 33.4937 23.0354 33.3965 23.3149C33.2993 23.5945 33.1413 23.8436 32.9225 24.0623L24.9017 32.0832H20.4173ZM22.6048 29.8957H23.9902L28.4017 25.4478L27.7454 24.755L27.0527 24.0988L22.6048 28.5103V29.8957ZM8.75065 32.0832C7.94857 32.0832 7.26194 31.7976 6.69076 31.2264C6.11957 30.6552 5.83398 29.9686 5.83398 29.1665V5.83317C5.83398 5.03109 6.11957 4.34446 6.69076 3.77327C7.26194 3.20209 7.94857 2.9165 8.75065 2.9165H20.4173L29.1673 11.6665V16.0415H26.2507V13.1248H18.959V5.83317H8.75065V29.1665H17.5007V32.0832H8.75065ZM27.7454 24.755L27.0527 24.0988L28.4017 25.4478L27.7454 24.755Z" fill="white"/>
  </g>
</svg>