<svg xmlns="http://www.w3.org/2000/svg" width="36" height="36" viewBox="0 0 36 36" fill="none">
  <path d="M28.605 20.82L19.5 29.91V33H22.59L31.68 23.895M34.05 20.37L32.13 18.45C32.0577 18.3705 31.9697 18.3069 31.8716 18.263C31.7735 18.2191 31.6675 18.1959 31.56 18.195C31.335 18.21 31.125 18.285 30.975 18.45L29.475 19.95L32.55 22.95L34.05 21.45C34.335 21.15 34.335 20.67 34.05 20.37ZM16.5 27H6V12L18 19.5L30 12V15H33V9C33 7.35 31.65 6 30 6H6C4.35 6 3 7.35 3 9V27C3 28.65 4.35 30 6 30H16.5V27ZM30 9L18 16.5L6 9H30Z" fill="white"/>
</svg>