<svg width="20" height="19" viewBox="0 0 20 19" fill="none" xmlns="http://www.w3.org/2000/svg">
<g clip-path="url(#clip0_11_124)">
<path d="M9.52052 0.0120939C17.428 -0.360876 22.6609 7.88217 18.5787 14.378C14.7058 20.5406 5.29374 20.5406 1.42086 14.378C-2.45224 8.21504 2.03689 0.365126 9.52052 0.0120939ZM6.60459 3.82544C5.15755 3.98213 4.02502 5.25144 3.95943 6.60852C4.07786 8.52755 3.80799 10.6046 3.96217 12.5047C4.07535 13.8991 5.20492 15.1274 6.69523 15.2538C8.80019 15.4321 11.1714 15.1227 13.3044 15.2538C14.8186 15.0704 15.9126 13.9498 16.0372 12.5045C16.2014 10.5985 15.9169 8.48941 16.0372 6.56193C15.914 5.13095 14.8395 4.02786 13.3508 3.81786C11.2049 3.96284 8.71046 3.59746 6.60459 3.82544Z" fill="white"/>
<path d="M7.02153 5.06511C8.92836 5.13792 10.9987 4.91622 12.8873 5.0508C13.8595 5.12015 14.5043 5.58068 14.6844 6.51104C14.5441 8.44047 14.8693 10.6059 14.6862 12.5074C14.6031 13.3701 13.8775 13.9518 12.9914 14.0153C11.0607 13.9115 8.9673 14.1559 7.05592 14.0179C6.18255 13.9548 5.41075 13.4254 5.31374 12.5551C5.10171 10.6555 5.46974 8.40255 5.31852 6.46596C5.48203 5.65393 6.14224 5.09436 7.02153 5.06511ZM13.057 5.80476C11.962 5.97012 12.5327 7.60524 13.5152 7.1328C14.2843 6.76287 13.9165 5.67495 13.057 5.80476ZM9.57103 6.59968C5.73892 7.03788 6.17298 12.7774 10.2843 12.4799C14.3198 12.1877 13.842 6.11142 9.57103 6.59968Z" fill="white"/>
<path d="M9.93752 7.83579C12.2675 7.7504 12.4012 11.1997 10.0161 11.2231C7.70799 11.2456 7.64194 7.92009 9.93752 7.83579Z" fill="white"/>
</g>
<defs>
<clipPath id="clip0_11_124">
<rect width="20" height="19" fill="white"/>
</clipPath>
</defs>
</svg>
