<svg width="19" height="19" viewBox="0 0 19 19" fill="none" xmlns="http://www.w3.org/2000/svg">
<path d="M11.5134 14.3789L9.73039 18.5578C9.32154 18.8407 9.13496 18.2661 8.98593 17.9602C8.43155 16.8215 8.02457 15.5349 7.49095 14.3793C6.06291 14.3042 4.61061 14.4374 3.18374 14.3703C1.99102 14.3141 0.992811 14.1738 0.387357 13.004C0.0421828 12.337 0.177687 12.0941 0.137106 11.4034C0.000435418 9.08116 -0.0506411 6.31101 0.0610741 3.98311C0.142003 2.29902 0.643906 1.2279 2.41222 0.951172H16.5224C18.2333 1.2132 18.7844 2.18496 18.8735 3.84036C18.9999 6.19174 18.9321 9.0527 18.7975 11.4034C18.7646 11.9758 18.8906 12.3137 18.6275 12.8717C18.044 14.109 17.0553 14.3087 15.8208 14.3703C14.4045 14.441 12.9347 14.3018 11.5134 14.3791V14.3789ZM7.99332 9.72947V6.05491C7.99332 6.00725 7.79321 5.59867 7.7433 5.52445C7.41399 5.03668 6.84911 4.85812 6.3092 4.73505V6.01934C6.3092 6.04969 6.80037 6.16304 6.80037 6.34042V9.72947H7.99332ZM3.50209 4.94918H2.30914V9.72947C2.62726 9.6747 3.17534 9.80488 3.45614 9.72947C3.51375 9.71406 3.49672 9.57913 3.53567 9.58625C3.91886 9.65454 4.04924 9.94787 4.64326 9.85468C5.83855 9.66734 6.18372 8.58414 5.94163 7.4988C5.69954 6.41345 4.33144 5.9003 3.50232 6.66125V4.94894L3.50209 4.94918ZM14.4495 10.3716V11.5132C15.228 11.7067 16.6248 11.2167 16.6248 10.2644V6.37599H15.502L15.5013 6.66149C14.7098 5.96101 13.4018 6.37812 13.08 7.37383C12.5298 9.07523 13.8167 10.5191 15.4311 9.58672C15.3931 10.2127 15.0568 10.4632 14.4495 10.3716ZM10.0802 6.39306C9.63663 6.46894 9.0503 6.95387 8.86698 7.37146C8.01174 9.31924 10.6365 10.7679 11.995 9.26754C13.2593 7.87156 11.8136 6.09688 10.08 6.39306H10.0802Z" fill="white"/>
<path d="M15.3365 8.56327C14.7093 9.20732 13.8998 8.28607 14.3758 7.69348C14.9162 7.02074 15.9226 7.9612 15.3365 8.56327Z" fill="white"/>
<path d="M4.04628 7.53133C4.8122 7.38265 5.04845 8.6034 4.23403 8.72741C3.442 8.84811 3.30463 7.67527 4.04628 7.53133Z" fill="white"/>
<path d="M10.43 7.46071C11.251 7.27124 11.5772 8.7054 10.6084 8.78697C9.83411 8.85219 9.69091 7.6312 10.43 7.46071Z" fill="white"/>
</svg>
