<svg width="20" height="14" viewBox="0 0 20 14" fill="none" xmlns="http://www.w3.org/2000/svg">
<path d="M5.21016 0.185365C8.59847 -0.0443383 13.9901 -0.145124 17.2823 0.394691C18.2188 0.548196 19.2637 1.22845 19.5586 2.14859C20.1427 3.97138 20.1341 9.80081 19.6098 11.6542C19.3355 12.6246 18.45 13.3325 17.4615 13.5337C14.2771 14.182 5.97195 14.1136 2.71415 13.5793C1.77761 13.4258 0.732915 12.7455 0.437819 11.8254C-0.145601 10.0046 -0.146278 3.96961 0.437819 2.14859C1.04291 0.26245 3.5457 0.298113 5.21016 0.185365ZM7.96628 4.10739V9.86659C9.36455 9.1746 10.7926 8.4578 12.0938 7.59791C12.381 7.40808 13.0409 7.26587 12.9348 6.87867L7.96628 4.10739Z" fill="white"/>
</svg>
