<svg xmlns="http://www.w3.org/2000/svg" width="692" height="535" viewBox="0 0 692 535" fill="#0057FF">
  <path d="M583.111 534.35C589.136 534.295 620.132 533.196 632.699 516.575C637.424 509.6 637.649 504.65 637.874 500.825C638.099 497 640.574 476.525 659.024 476.525C666.224 476.525 677.249 474.95 682.424 469.775C687.599 464.6 691.199 454.925 691.199 441.2V38.394C691.199 17.19 674.01 0 652.805 0H38.394C17.189 0 0 17.189 0 38.394V495.957C0 517.161 17.189 534.351 38.394 534.351H582.084H582.075H583.112L583.111 534.35Z" fill="#0057FF"/>
</svg>