<svg xmlns="http://www.w3.org/2000/svg" width="70" height="70" viewBox="0 0 70 70" fill="none">
  <g clip-path="url(#clip0_554_133)">
    <path d="M55.9543 0.335938C63.5335 0.335938 69.6587 6.46497 69.6587 14.0187C69.6587 18.9919 66.9932 23.3601 63.0084 25.7526C61.7161 21.6397 59.5487 17.9166 56.7217 14.7983C57.0986 14.5429 57.3544 14.1128 57.3544 13.6289C57.3544 12.8628 56.7217 12.2445 55.9543 12.2445C55.4697 12.2445 55.0389 12.4999 54.7966 12.8763C51.8215 10.1478 48.2809 8.02411 44.377 6.69346C46.8136 2.87626 51.0811 0.335938 55.9543 0.335938Z" fill="white"/>
    <path d="M62.7928 44.1128C66.8987 46.4784 69.6585 50.9139 69.6585 55.9811C69.6585 63.5348 63.5332 69.6639 55.9541 69.6639C50.8251 69.6639 46.3422 66.8413 43.9863 62.6612C48.0519 61.344 51.727 59.1666 54.7964 56.344C55.0387 56.7338 55.4695 56.9891 55.9541 56.9891C56.7214 56.9891 57.3541 56.3709 57.3541 55.5913C57.3541 55.1074 57.0984 54.6773 56.708 54.4354C59.3869 51.4784 61.487 47.9838 62.7928 44.1128Z" fill="white"/>
    <path d="M63.0092 25.7529C63.8977 28.5486 64.3688 31.5325 64.3688 34.6105C64.3688 37.9438 63.8169 41.1427 62.7938 44.1131C60.7879 42.9572 58.4455 42.2986 55.955 42.2986C52.1991 42.2986 48.7932 43.804 46.3162 46.2502L34.9004 34.7045L46.0874 23.5083C48.5778 26.0889 52.078 27.7019 55.955 27.7019C58.5398 27.7019 60.9495 26.9895 63.0092 25.7529Z" fill="white"/>
    <path d="M56.7229 14.7985C59.5499 17.9168 61.7173 21.6399 63.0097 25.7528C60.95 26.9894 58.5403 27.7017 55.9556 27.7017C52.0785 27.7017 48.5784 26.0888 46.0879 23.5082L54.9728 14.6104C55.2286 14.8657 55.5786 15.027 55.9556 15.027C56.2383 15.027 56.5075 14.9464 56.7229 14.7985Z" fill="white"/>
    <path d="M62.794 44.1129C61.4881 47.9838 59.3881 51.4784 56.7091 54.4354C56.4937 54.2876 56.2379 54.2069 55.9552 54.2069C55.4706 54.2069 55.0533 54.4489 54.811 54.8118L46.3164 46.25C48.7934 43.8037 52.1993 42.2983 55.9552 42.2983C58.4457 42.2983 60.7881 42.9569 62.794 44.1129Z" fill="white"/>
    <path d="M55.7661 13.8172C55.4565 13.4946 55.1334 13.1855 54.7969 12.8763C55.0392 12.5 55.47 12.2446 55.9546 12.2446C56.7219 12.2446 57.3547 12.8629 57.3547 13.629C57.3547 14.1129 57.0989 14.543 56.7219 14.7984C56.4123 14.4624 56.1027 14.1398 55.7661 13.8172Z" fill="white"/>
    <path d="M55.5777 55.6049C55.9681 55.2286 56.345 54.8388 56.7085 54.4355C57.0989 54.6775 57.3547 55.1076 57.3547 55.5915C57.3547 56.371 56.7219 56.9893 55.9546 56.9893C55.47 56.9893 55.0392 56.7339 54.7969 56.3441C55.0661 56.1022 55.3219 55.8603 55.5777 55.6049Z" fill="white"/>
    <path d="M55.7669 13.8174C56.1035 14.14 56.4131 14.4625 56.7227 14.7986C56.5073 14.9464 56.2381 15.0271 55.9554 15.0271C55.5784 15.0271 55.2284 14.8658 54.9727 14.6104L55.7669 13.8174Z" fill="white"/>
    <path d="M56.7088 54.4355C56.3453 54.8387 55.9684 55.2285 55.578 55.6049L54.8107 54.8253C54.8107 54.8253 54.7972 54.8253 54.8107 54.8119C55.053 54.449 55.4703 54.207 55.9549 54.207C56.2376 54.207 56.4934 54.2877 56.7088 54.4355Z" fill="white"/>
    <path d="M54.7972 12.8765C55.1338 13.1856 55.4569 13.4947 55.7665 13.8173L54.9722 14.6103C54.7164 14.355 54.5684 14.0055 54.5684 13.6292C54.5684 13.3469 54.6491 13.0915 54.7972 12.8765Z" fill="white"/>
    <path d="M54.8107 54.8252L55.578 55.6048C55.3222 55.8601 55.0665 56.1021 54.7972 56.344C54.6491 56.129 54.5684 55.8736 54.5684 55.5913C54.5684 55.3091 54.6491 55.0537 54.8107 54.8252Z" fill="white"/>
    <path d="M54.9716 14.61L46.0867 23.5079C43.7039 21.0348 42.25 17.7014 42.25 14.0186C42.25 11.3305 43.0308 8.81702 44.377 6.69336C48.281 8.024 51.8215 10.1477 54.7966 12.8762C54.6486 13.0912 54.5678 13.3466 54.5678 13.6288C54.5678 14.0052 54.7159 14.3546 54.9716 14.61Z" fill="white"/>
    <path d="M54.8101 54.8118C54.7966 54.8253 54.8101 54.8253 54.8101 54.8253C54.6486 55.0538 54.5678 55.3091 54.5678 55.5914C54.5678 55.8737 54.6486 56.129 54.7966 56.3441C51.7273 59.1667 48.0521 61.3441 43.9866 62.6613C42.8827 60.6855 42.25 58.414 42.25 55.9812C42.25 52.1774 43.8116 48.7366 46.3155 46.25L54.8101 54.8118Z" fill="white"/>
    <path d="M34.9008 34.7041L46.3166 46.2498C43.8127 48.7364 42.2511 52.1772 42.2511 55.981C42.2511 58.4138 42.8838 60.6853 43.9877 62.6611C41.1068 63.6019 38.024 64.1127 34.8201 64.1127C31.7372 64.1127 28.7487 63.6423 25.9486 62.7552C27.0928 60.7525 27.7525 58.4407 27.7525 55.981C27.7525 52.0966 26.1236 48.5885 23.5254 46.1019L34.9008 34.7041Z" fill="white"/>
    <path d="M46.0874 23.508L34.9004 34.7042L23.875 23.5617C26.2712 21.0886 27.7521 17.7284 27.7521 14.0187C27.7521 11.2902 26.9443 8.73645 25.5578 6.59936C28.4656 5.63162 31.5888 5.10742 34.8197 5.10742C38.1582 5.10742 41.3757 5.6585 44.3777 6.69344C43.0315 8.8171 42.2507 11.3305 42.2507 14.0187C42.2507 17.7015 43.7046 21.0348 46.0874 23.508Z" fill="white"/>
    <path d="M34.9013 34.7045L23.5258 46.1023C21.0488 43.7502 17.7237 42.2986 14.0485 42.2986C11.4369 42.2986 8.9868 43.0378 6.90018 44.3013C5.83668 41.2771 5.25781 38.0109 5.25781 34.6104C5.25781 31.4518 5.75591 28.4007 6.68479 25.5513C8.8118 26.9088 11.3427 27.7018 14.0485 27.7018C17.8987 27.7018 21.3854 26.1158 23.8758 23.562L34.9013 34.7045Z" fill="white"/>
    <path d="M27.7529 55.9811C27.7529 58.4408 27.0933 60.7526 25.949 62.7553C21.87 61.4784 18.1679 59.3413 15.0582 56.559C15.287 56.3037 15.4351 55.9676 15.4351 55.5913C15.4351 55.215 15.2736 54.8655 15.0312 54.6101L23.5258 46.1021C26.124 48.5886 27.7529 52.0967 27.7529 55.9811Z" fill="white"/>
    <path d="M25.5586 6.59961C26.9452 8.73671 27.7529 11.2905 27.7529 14.019C27.7529 17.7286 26.2721 21.0889 23.8758 23.562L15.0312 14.6104C15.2736 14.355 15.4351 14.0055 15.4351 13.6292C15.4351 13.2528 15.287 12.9168 15.0447 12.6749C18.0468 9.97327 21.6277 7.87649 25.5586 6.59961Z" fill="white"/>
    <path d="M14.0481 0.335938C18.881 0.335938 23.1216 2.83594 25.5582 6.59938C21.6273 7.87626 18.0464 9.97303 15.0443 12.6746C14.802 12.4058 14.4385 12.2445 14.0481 12.2445C13.2673 12.2445 12.6481 12.8628 12.6481 13.6289C12.6481 14.0187 12.8096 14.3682 13.0654 14.6236C10.2114 17.7284 8.00366 21.4381 6.68438 25.551C2.86115 23.1316 0.34375 18.8709 0.34375 14.0187C0.34375 6.46497 6.46899 0.335938 14.0481 0.335938Z" fill="white"/>
    <path d="M25.9486 62.7556C23.5927 66.8819 19.1502 69.6642 14.0481 69.6642C6.46899 69.6642 0.34375 63.5351 0.34375 55.9814C0.34375 51.0351 2.96885 46.7072 6.89977 44.3013C8.23251 48.1588 10.3595 51.6534 13.0654 54.597C12.8096 54.8523 12.6481 55.2018 12.6481 55.5916C12.6481 56.3712 13.2673 56.9894 14.0481 56.9894C14.4385 56.9894 14.802 56.8282 15.0578 56.5593C18.1675 59.3416 21.8696 61.4787 25.9486 62.7556Z" fill="white"/>
    <path d="M15.0301 14.6104L23.8746 23.562C21.3842 26.1157 17.8975 27.7017 14.0473 27.7017C11.3415 27.7017 8.8106 26.9087 6.68359 25.5512C8.00288 21.4383 10.2107 17.7286 13.0646 14.6238C13.3204 14.8792 13.6569 15.027 14.0473 15.027C14.4377 15.027 14.7743 14.8657 15.0301 14.6104Z" fill="white"/>
    <path d="M23.5241 46.1021L15.0295 54.6102C14.7737 54.3548 14.4372 54.2069 14.0468 54.2069C13.6564 54.2069 13.3198 54.3548 13.0641 54.5967C10.3582 51.6532 8.23118 48.1586 6.89844 44.301C8.98506 43.0376 11.4352 42.2983 14.0468 42.2983C17.7219 42.2983 21.0471 43.75 23.5241 46.1021Z" fill="white"/>
    <path d="M15.0431 12.6748C15.2854 12.9167 15.4335 13.2528 15.4335 13.6291C15.4335 14.0054 15.2719 14.3549 15.0296 14.6103L14.0469 13.6291C14.37 13.2931 14.7065 12.9839 15.0431 12.6748Z" fill="white"/>
    <path d="M15.0296 54.6104C15.2719 54.8657 15.4335 55.2152 15.4335 55.5915C15.4335 55.9679 15.2854 56.3039 15.0565 56.5593C14.7065 56.2501 14.37 55.9276 14.0469 55.5915L15.0296 54.6104Z" fill="white"/>
    <path d="M14.0472 13.6289L15.0299 14.6101C14.7741 14.8655 14.4376 15.0268 14.0472 15.0268C13.6568 15.0268 13.3202 14.8789 13.0645 14.6235C13.3875 14.2875 13.7106 13.9515 14.0472 13.6289Z" fill="white"/>
    <path d="M15.0299 54.6103L14.0472 55.5914C13.7106 55.2823 13.3875 54.9463 13.0645 54.5968C13.3202 54.3549 13.6568 54.207 14.0472 54.207C14.4376 54.207 14.7741 54.3549 15.0299 54.6103Z" fill="white"/>
    <path d="M15.0447 12.6747C14.7081 12.9839 14.3716 13.293 14.0485 13.629C13.7119 13.9516 13.3888 14.2876 13.0658 14.6237C12.81 14.3683 12.6484 14.0188 12.6484 13.629C12.6484 12.8629 13.2677 12.2446 14.0485 12.2446C14.4389 12.2446 14.8024 12.4059 15.0447 12.6747Z" fill="white"/>
    <path d="M14.0485 55.5913C14.3716 55.9273 14.7081 56.2499 15.0581 56.559C14.8024 56.8279 14.4389 56.9892 14.0485 56.9892C13.2677 56.9892 12.6484 56.3709 12.6484 55.5913C12.6484 55.2015 12.81 54.8521 13.0658 54.5967C13.3888 54.9461 13.7119 55.2822 14.0485 55.5913Z" fill="white"/>
    <path d="M23.8754 23.5617C26.2717 21.0886 27.7525 17.7284 27.7525 14.0187C27.7525 11.2902 26.9448 8.73647 25.5582 6.59938C23.1216 2.83594 18.881 0.335938 14.0481 0.335938C6.46899 0.335938 0.34375 6.46497 0.34375 14.0187C0.34375 18.8709 2.86115 23.1316 6.68438 25.551C8.81138 26.9085 11.3423 27.7015 14.0481 27.7015C17.8983 27.7015 21.3849 26.1155 23.8754 23.5617Z" stroke="#1B1A1E" stroke-width="0.5" stroke-miterlimit="10"/>
    <path d="M63.0085 25.7526C66.9933 23.3601 69.6587 18.9919 69.6587 14.0187C69.6587 6.46497 63.5335 0.335938 55.9544 0.335938C51.0811 0.335938 46.8136 2.87626 44.377 6.69346C43.0308 8.81712 42.25 11.3306 42.25 14.0187C42.25 17.7015 43.7039 21.0349 46.0867 23.508C48.5772 26.0886 52.0773 27.7015 55.9544 27.7015C58.5391 27.7015 60.9488 26.9892 63.0085 25.7526Z" stroke="#1B1A1E" stroke-width="0.5" stroke-miterlimit="10"/>
    <path d="M25.9486 62.7553C27.0929 60.7526 27.7525 58.4408 27.7525 55.9811C27.7525 52.0967 26.1236 48.5887 23.5254 46.1021C21.0484 43.75 17.7233 42.2983 14.0481 42.2983C11.4365 42.2983 8.98639 43.0376 6.89977 44.301C2.96885 46.7069 0.34375 51.0349 0.34375 55.9811C0.34375 63.5349 6.46899 69.6639 14.0481 69.6639C19.1502 69.6639 23.5927 66.8817 25.9486 62.7553Z" stroke="#1B1A1E" stroke-width="0.5" stroke-miterlimit="10"/>
    <path d="M43.9866 62.6612C46.3425 66.8413 50.8253 69.6639 55.9544 69.6639C63.5335 69.6639 69.6587 63.5349 69.6587 55.9811C69.6587 50.9139 66.899 46.4784 62.7931 44.1129C60.7873 42.9569 58.4449 42.2983 55.9544 42.2983C52.1985 42.2983 48.7926 43.8037 46.3155 46.25C43.8116 48.7365 42.25 52.1774 42.25 55.9811C42.25 58.4139 42.8827 60.6854 43.9866 62.6612Z" stroke="#1B1A1E" stroke-width="0.5" stroke-miterlimit="10"/>
    <path d="M62.7946 44.1128C63.8178 41.1424 64.3697 37.9434 64.3697 34.6101C64.3697 31.5322 63.8985 28.5483 63.01 25.7526C61.7177 21.6397 59.5503 17.9166 56.7233 14.7983C56.4136 14.4623 56.104 14.1397 55.7674 13.8171C55.4578 13.4945 55.1347 13.1854 54.7982 12.8762C51.8231 10.1477 48.2825 8.02409 44.3785 6.69344C41.3765 5.6585 38.1591 5.10742 34.8205 5.10742C31.5896 5.10742 28.4664 5.63162 25.5586 6.59936C21.6277 7.87624 18.0468 9.97301 15.0447 12.6746C14.7082 12.9838 14.3716 13.2929 14.0485 13.6289C13.712 13.9515 13.3889 14.2875 13.0658 14.6236C10.2118 17.7284 8.00407 21.4381 6.68479 25.551C5.75591 28.4004 5.25781 31.4515 5.25781 34.6101C5.25781 38.0106 5.83668 41.2768 6.90018 44.301C8.23293 48.1585 10.3599 51.6531 13.0658 54.5967C13.3889 54.9461 13.712 55.2822 14.0485 55.5913C14.3716 55.9273 14.7082 56.2499 15.0582 56.559C18.1679 59.3413 21.87 61.4784 25.949 62.7553C28.7491 63.6424 31.7377 64.1128 34.8205 64.1128C38.0245 64.1128 41.1073 63.602 43.9881 62.6612C48.0537 61.344 51.7288 59.1666 54.7982 56.344C55.0674 56.102 55.3232 55.8601 55.579 55.6047C55.9694 55.2284 56.3463 54.8386 56.7098 54.4354C59.3887 51.4784 61.4888 47.9838 62.7946 44.1128Z" stroke="#1B1A1E" stroke-width="0.5" stroke-miterlimit="10"/>
    <path d="M54.8105 54.8252L55.5779 55.6048L55.9548 55.9811" stroke="#1B1A1E" stroke-width="0.5" stroke-miterlimit="10"/>
    <path d="M14.0469 13.6289L15.0296 14.6101L23.8742 23.5617L34.8996 34.7042L46.3154 46.2499L54.81 54.8117" stroke="#1B1A1E" stroke-width="0.5" stroke-miterlimit="10"/>
    <path d="M55.9543 13.6289L55.7658 13.8171L54.9715 14.6101L46.0866 23.5079L34.8996 34.7042L23.5242 46.102L15.0296 54.6101L14.0469 55.5913" stroke="#1B1A1E" stroke-width="0.5" stroke-miterlimit="10"/>
    <path d="M15.0312 14.6102C15.2735 14.3548 15.4351 14.0054 15.4351 13.629C15.4351 13.2527 15.287 12.9167 15.0447 12.6747C14.8024 12.4059 14.4389 12.2446 14.0485 12.2446C13.2677 12.2446 12.6484 12.8629 12.6484 13.629C12.6484 14.0188 12.81 14.3683 13.0658 14.6237C13.3215 14.879 13.6581 15.0269 14.0485 15.0269C14.4389 15.0269 14.7754 14.8656 15.0312 14.6102Z" stroke="#1B1A1E" stroke-width="0.5" stroke-miterlimit="10"/>
    <path d="M56.7223 14.7984C57.0992 14.543 57.355 14.1129 57.355 13.629C57.355 12.8629 56.7223 12.2446 55.9549 12.2446C55.4703 12.2446 55.0395 12.5 54.7972 12.8763C54.6491 13.0914 54.5684 13.3468 54.5684 13.629C54.5684 14.0054 54.7164 14.3548 54.9722 14.6102C55.228 14.8656 55.578 15.0269 55.9549 15.0269C56.2377 15.0269 56.5069 14.9462 56.7223 14.7984Z" stroke="#1B1A1E" stroke-width="0.5" stroke-miterlimit="10"/>
    <path d="M15.0581 56.5592C15.287 56.3038 15.4351 55.9678 15.4351 55.5914C15.4351 55.2151 15.2735 54.8656 15.0312 54.6103C14.7754 54.3549 14.4389 54.207 14.0485 54.207C13.6581 54.207 13.3215 54.3549 13.0658 54.5968C12.81 54.8522 12.6484 55.2017 12.6484 55.5914C12.6484 56.371 13.2677 56.9893 14.0485 56.9893C14.4389 56.9893 14.8024 56.828 15.0581 56.5592Z" stroke="#1B1A1E" stroke-width="0.5" stroke-miterlimit="10"/>
    <path d="M54.7972 56.3441C55.0395 56.7339 55.4703 56.9893 55.9549 56.9893C56.7223 56.9893 57.355 56.371 57.355 55.5914C57.355 55.1076 57.0992 54.6775 56.7088 54.4355C56.4934 54.2877 56.2377 54.207 55.9549 54.207C55.4703 54.207 55.053 54.449 54.8107 54.8119C54.7972 54.8253 54.8107 54.8253 54.8107 54.8253C54.6491 55.0538 54.5684 55.3092 54.5684 55.5914C54.5684 55.8737 54.6491 56.1291 54.7972 56.3441Z" stroke="#1B1A1E" stroke-width="0.5" stroke-miterlimit="10"/>
  </g>
  <defs>
    <clipPath id="clip0_554_133">
      <rect width="70" height="70" fill="white"/>
    </clipPath>
  </defs>
</svg>